<?xml version="1.0" encoding="utf-8" ?>	<!-- Generator: Assembly 2.2 - http://assemblyapp.co -->	<svg version="1.1" xmlns="http://www.w3.org/2000/svg" xmlns:xlink="http://www.w3.org/1999/xlink" width="1536.00" height="2048.00" viewBox="0 0 1536.0 2048.0">		<g id="document" transform="matrix(1,0,0,1,768.0,1024.0)">			<g>				<path d="M137.359,570.503 C242.173,570.503 338.735,526.035 375.424,380.448 L436.526,137.986 C472.135,-3.31583 211.351,-52.0689 106.537,-52.0689 L-135.925,-52.0689 C-240.74,-52.0689 -468.774,9.69297 -436.794,137.986 L-376.356,380.448 C-339.494,528.329 -240.74,570.503 -135.925,570.503 L137.359,570.503 Z " fill="#386233" fill-opacity="1.00" />				<path d="M-196.997,42.7356 C-116.571,116.893 124.368,109.703 196.997,42.7356 C186.923,-40.6482 157.506,-284.135 157.506,-284.135 L-157.506,-284.135 L-196.997,42.7356 Z " fill="#8b7a5b" fill-opacity="1.00" />				<path d="M249.595,-379.182 C249.595,-561.578 137.848,-622.572 -1.45519e-13,-622.572 C-137.848,-622.572 -249.595,-561.578 -249.595,-379.182 C-249.595,-196.786 -137.848,2.27374e-13 -1.45519e-13,2.27374e-13 C137.848,2.27374e-13 249.595,-196.786 249.595,-379.182 Z " fill="#a7926f" fill-opacity="1.00" />				<path d="M347.701,-557.05 C342.894,-508.823 171.223,-347.42 -4.44656,-347.42 C-180.116,-347.42 -359.784,-508.823 -354.976,-557.05 C-350.168,-605.277 -180.116,-593.895 -4.44656,-593.895 C171.223,-593.895 352.509,-605.277 347.701,-557.05 Z " fill="#265220" fill-opacity="1.00" />				<path d="M196.997,-564.126 L196.997,-681.067 C196.997,-713.38 174.557,-742.615 138.258,-763.772 C101.96,-784.929 50.052,-763.772 -5.38621,-763.772 C-64.939,-763.772 -116.65,-782.916 -153.382,-758.93 C-185.039,-738.259 -204.271,-710.982 -204.271,-681.067 C-204.271,-681.067 -204.271,-600.196 -204.271,-564.126 C-156.688,-544.603 -81.322,-516.355 -5.38621,-516.226 C70.5496,-516.097 147.056,-544.087 196.997,-564.126 C196.997,-634.292 196.997,-564.126 196.997,-564.126 Z " fill="#386233" fill-opacity="1.00" />			</g>			<path d="M0.272355,-764.815 C-1.05412,-764.791 -2.38279,-764.779 -3.71349,-764.779 C-63.2663,-764.779 -114.977,-783.923 -151.709,-759.937 C-183.366,-739.265 -202.598,-711.988 -202.598,-682.074 C-202.598,-682.074 -202.598,-634.282 -202.598,-595.791 C-288.964,-594.358 -350.439,-586.779 -353.303,-558.057 C-355.724,-533.767 -311.351,-480.769 -244.262,-434.141 C-246.668,-417.472 -247.922,-399.512 -247.922,-380.189 C-247.922,-289.387 -220.228,-195.019 -175.406,-123.139 L-184.308,-49.4521 C-297.665,-34.536 -462.637,26.5952 -435.122,136.979 L-374.683,379.441 C-337.821,527.323 -239.067,569.496 -134.253,569.496 L0.272354,569.496 L0.272354,-764.815 L0.272355,-764.815 Z " fill="#000000" fill-opacity="0.25" />			<g>				<path d="M605.839,744.324 L489.286,314.992 L378.095,314.992 L409.665,447.052 L409.665,744.324 L605.839,744.324 Z " fill="#7f6027" fill-opacity="1.00" />				<path d="M489.405,315.731 L400.439,48.1454 L400.439,-529.006 L348.2,-529.006 L348.2,192.087 L378.213,315.731 L489.405,315.731 Z " fill="#4b4b4b" fill-opacity="1.00" />				<path d="M399.874,213.677 C438.73,213.85 432.642,213.823 455.667,213.926 L455.667,50.0387 C455.667,31.2858 429.499,23.3407 416.087,23.3407 C408.12,23.3407 399.874,25.2514 399.874,36.059 L399.874,213.677 Z " fill="#7f6027" fill-opacity="1.00" />			</g>			<path d="M522.93,744.324 L374.568,192.859 L374.568,-529.006 L348.2,-529.006 L348.2,192.087 L378.213,315.731 L378.271,315.731 L409.665,447.052 L409.665,744.324 L522.93,744.324 L522.93,744.324 Z " fill="#000000" fill-opacity="0.25" />		</g>	</svg>