<?xml version="1.0" encoding="UTF-8" standalone="no"?>
<!-- Generator: Assembly 2.2 - http://assemblyapp.co -->

<svg
   xmlns:dc="http://purl.org/dc/elements/1.1/"
   xmlns:cc="http://creativecommons.org/ns#"
   xmlns:rdf="http://www.w3.org/1999/02/22-rdf-syntax-ns#"
   xmlns:svg="http://www.w3.org/2000/svg"
   xmlns="http://www.w3.org/2000/svg"
   xmlns:sodipodi="http://sodipodi.sourceforge.net/DTD/sodipodi-0.dtd"
   xmlns:inkscape="http://www.inkscape.org/namespaces/inkscape"
   version="1.1"
   width="2048"
   height="800"
   viewBox="0 0 2048 799.99999"
   id="svg4707"
   sodipodi:docname="scenery.svg"
   inkscape:version="0.92.3 (2405546, 2018-03-11)">
  <metadata
     id="metadata4713">
    <rdf:RDF>
      <cc:Work
         rdf:about="">
        <dc:format>image/svg+xml</dc:format>
        <dc:type
           rdf:resource="http://purl.org/dc/dcmitype/StillImage" />
        <dc:title />
      </cc:Work>
    </rdf:RDF>
  </metadata>
  <defs
     id="defs4711" />
  <sodipodi:namedview
     pagecolor="#ffffff"
     bordercolor="#666666"
     borderopacity="1"
     objecttolerance="10"
     gridtolerance="10"
     guidetolerance="10"
     inkscape:pageopacity="0"
     inkscape:pageshadow="2"
     inkscape:window-width="1600"
     inkscape:window-height="837"
     id="namedview4709"
     showgrid="false"
     inkscape:zoom="6.3308155"
     inkscape:cx="1270.1719"
     inkscape:cy="439.97544"
     inkscape:window-x="-8"
     inkscape:window-y="366"
     inkscape:window-maximized="1"
     inkscape:current-layer="document"
     inkscape:measure-start="1286.41,85.9289"
     inkscape:measure-end="0,0" />
  <g
     id="document"
     transform="translate(1024,224)">
    <path
       style="fill:#8e8b7d;fill-opacity:0.51999996"
       d="M 1313.6191 282.84766 L 1194.1855 407.25781 L 1143.4277 429.1543 L 1038.9219 508.77539 L 1007.0742 497.82812 C 1007.0742 497.82812 958.46291 548.29333 918.56641 589.86133 L 918.51367 589.83594 L 873.06445 528.67578 L 761.40625 485.4707 L 752.99023 468.63867 L 713.15234 440.02148 L 645.82031 509.59766 L 617.20508 521.94141 L 558.85156 567.39062 L 540.89648 561.21875 C 540.89648 561.21875 530.2005 572.40444 516.6875 586.52344 L 502.74219 555.04688 L 427.55469 521.38086 L 333.85156 504.54883 L 268.76562 459.66016 L 233.97656 387.2793 L 203.11719 364.83594 L 175.0625 447.87695 L 113.90234 542.14062 L 103.6582 545.81445 L 102.43555 542.14062 L 58.107422 456.85547 L 42.958984 450.12109 L 10.419922 392.89062 L -13.150391 392.89062 L -73.75 442.82617 L -95.630859 473.6875 L -113.58984 469.75977 L -172.5 521.38086 L -257.78906 521.38086 L -288.65039 564.02344 L -380.66992 597.68945 L -421.07031 643.13867 L -2.7597656 643.13867 C -2.7597656 643.13867 28.124703 606.9082 130.9707 606.9082 C 233.8167 606.9082 408.62305 643.13867 408.62305 643.13867 C 572.53405 643.13867 615.96584 606.9082 783.08984 606.9082 C 950.21444 606.9082 962.69409 643.13867 1116.9629 643.13867 C 1271.2319 643.13867 1432.9017 606.9082 1638.5938 606.9082 C 1844.2847 606.9082 2054.1602 643.13867 2054.1602 643.13867 L 2177.0391 643.13867 L 2143.3809 542.14062 L 2099.0508 456.85547 L 2083.9004 450.12109 L 2051.3594 392.89062 L 2027.7891 392.89062 L 1967.1914 442.82617 L 1945.3086 473.6875 L 1927.3535 469.75977 L 1868.4375 521.38086 L 1783.1523 521.38086 L 1752.291 564.02344 L 1725.7422 573.73633 L 1678.8867 548.58789 L 1598.2676 440.10156 L 1399.2129 363.4668 L 1384.2832 333.60742 L 1313.6191 282.84766 z M 1315.6094 312.70703 L 1369.3535 347.54102 L 1380.3027 374.41406 L 1478.8359 415.2207 L 1363.3828 451.05078 L 1289.7324 462.99219 L 1170.2988 438.11133 L 1217.0762 419.20117 L 1315.6094 312.70703 z "
       transform="translate(-1024,-224)"
       id="path4660" />
    <path
       style="fill:#8e8b7d;fill-opacity:1"
       d="M 426.51172 438.42188 L 391.13867 469.14453 L 379.84961 472.14062 L 349.36914 548.57031 L 317.38281 568.05273 L 253.78711 555.81445 L 225.56445 569.30078 L 198.08398 610.57031 C 295.78609 619.76368 408.62305 643.13867 408.62305 643.13867 C 459.79191 643.13867 499.21713 639.60718 534.33203 634.75 L 511.55664 530.33789 L 488.60156 510.60547 L 470.16211 491.87305 L 437.42383 442.16992 L 426.51172 438.42188 z M 979.02148 486.39844 L 885.49609 507.91016 L 864.33203 519.35352 L 791.68164 606.94336 C 950.68054 608.16336 965.38443 643.13867 1116.9629 643.13867 C 1206.9026 643.13867 1299.3758 630.82896 1401.6035 620.55859 L 1386.5723 601.05273 L 1251.4043 555.51172 L 1194.0605 546.35742 L 1142.1797 548.1875 L 1108.7285 534.68555 L 979.02148 486.39844 z M 1852.3203 489.74609 L 1821.8125 503.42188 L 1787.4199 547.52734 L 1723.0723 574.87891 L 1630.4355 585.13477 L 1556.1035 605.64844 L 1553.7656 608.90234 C 1581.2373 607.65455 1609.4599 606.9082 1638.5938 606.9082 C 1803.7446 606.9082 1971.3417 630.23259 2031.0898 639.43945 L 1999.3203 610.77734 L 1940.5195 597.78516 L 1880.0566 540.34766 L 1852.3203 489.74609 z "
       transform="translate(-1024,-224)"
       id="path4662" />
    <g
       id="g4775">
      <path
         style="fill:#174a11;fill-opacity:1"
         inkscape:connector-curvature="0"
         id="path4670"
         d="m -817.255,411.986 c 0,0 13.15,9.392 29.032,11.783 -32.276,-19.81 -38.424,-71.383 -38.424,-71.383 0,0 13.491,10.075 22.542,11.1 -25.616,-17.419 -26.641,-30.056 -26.641,-43.377 0,13.491 -1.195,25.958 -26.811,43.377 9.222,-0.854 22.542,-11.1 22.542,-11.1 0,0 -6.148,51.402 -38.424,71.383 15.711,-2.391 29.031,-11.783 29.031,-11.783 0,0 -13.491,52.427 -53.964,77.702 16.223,0 43.889,0 67.626,-10.417 23.909,10.417 51.403,10.417 67.627,10.417 -40.644,-25.104 -54.136,-77.702 -54.136,-77.702 z" />
      <path
         style="fill:#174a11;fill-opacity:1"
         inkscape:connector-curvature="0"
         id="path4672"
         d="m -440.03,409.832 c 0,0 13.149,9.393 29.031,11.784 -32.276,-19.81 -38.424,-71.384 -38.424,-71.384 0,0 13.491,10.076 22.542,11.1 -25.616,-17.419 -26.641,-30.056 -26.641,-43.376 0,13.491 -1.195,25.957 -26.811,43.376 9.222,-0.853 22.542,-11.1 22.542,-11.1 0,0 -6.148,51.403 -38.424,71.384 15.711,-2.391 29.032,-11.784 29.032,-11.784 0,0 -13.492,52.428 -53.965,77.702 16.223,0 43.889,0 67.626,-10.417 23.909,10.417 51.403,10.417 67.627,10.417 -40.644,-25.103 -54.135,-77.702 -54.135,-77.702 z" />
      <path
         style="fill:#174a11;fill-opacity:1"
         inkscape:connector-curvature="0"
         id="path4674"
         d="m -965.167,411.986 c 0,0 13.15,9.392 29.032,11.783 -32.276,-19.81 -38.424,-71.383 -38.424,-71.383 0,0 13.491,10.075 22.542,11.1 -25.616,-17.419 -26.641,-30.056 -26.641,-43.377 0,13.491 -1.195,25.958 -26.812,43.377 9.223,-0.854 22.543,-11.1 22.543,-11.1 0,0 -6.148,51.402 -38.423,71.383 15.71,-2.391 29.03,-11.783 29.03,-11.783 0,0 -13.49,52.427 -53.96,77.702 16.22,0 43.88,0 67.622,-10.417 23.909,10.417 51.403,10.417 67.627,10.417 -40.644,-25.104 -54.136,-77.702 -54.136,-77.702 z" />
      <path
         style="fill:#174a11;fill-opacity:1"
         inkscape:connector-curvature="0"
         id="path4676"
         d="m -575.283,411.986 c 0,0 13.149,9.392 29.031,11.783 -32.276,-19.81 -38.424,-71.383 -38.424,-71.383 0,0 13.491,10.075 22.542,11.1 -25.616,-17.419 -26.641,-30.056 -26.641,-43.377 0,13.491 -1.195,25.958 -26.811,43.377 9.222,-0.854 22.542,-11.1 22.542,-11.1 0,0 -6.148,51.402 -38.424,71.383 15.711,-2.391 29.032,-11.783 29.032,-11.783 0,0 -13.492,52.427 -53.965,77.702 16.224,0 43.889,0 67.626,-10.417 23.909,10.417 51.403,10.417 67.627,10.417 -40.644,-25.104 -54.135,-77.702 -54.135,-77.702 z" />
      <path
         style="fill:#174a11;fill-opacity:1"
         inkscape:connector-curvature="0"
         id="path4680"
         d="m 507.818,411.986 c 0,0 -13.15,9.392 -29.032,11.783 32.277,-19.81 38.424,-71.383 38.424,-71.383 0,0 -13.491,10.075 -22.542,11.1 25.616,-17.419 26.641,-30.056 26.641,-43.377 0,13.491 1.195,25.958 26.812,43.377 -9.222,-0.854 -22.543,-11.1 -22.543,-11.1 0,0 6.148,51.402 38.424,71.383 -15.711,-2.391 -29.031,-11.783 -29.031,-11.783 0,0 13.491,52.427 53.964,77.702 -16.223,0 -43.888,0 -67.626,-10.417 -23.908,10.417 -51.403,10.417 -67.626,10.417 40.644,-25.104 54.135,-77.702 54.135,-77.702 z" />
      <path
         style="fill:#174a11;fill-opacity:1"
         inkscape:connector-curvature="0"
         id="path4682"
         d="m 842.703,411.986 c 0,0 -13.149,9.392 -29.031,11.783 32.276,-19.81 38.424,-71.383 38.424,-71.383 0,0 -13.491,10.075 -22.542,11.1 25.616,-17.419 26.64,-30.056 26.64,-43.377 0,13.491 1.196,25.958 26.812,43.377 -9.222,-0.854 -22.542,-11.1 -22.542,-11.1 0,0 6.148,51.402 38.424,71.383 -15.711,-2.391 -29.032,-11.783 -29.032,-11.783 0,0 13.491,52.427 53.965,77.702 -16.224,0 -43.889,0 -67.627,-10.417 -23.908,10.417 -51.403,10.417 -67.626,10.417 40.644,-25.104 54.135,-77.702 54.135,-77.702 z" />
      <path
         style="fill:#174a11;fill-opacity:1"
         inkscape:connector-curvature="0"
         id="path4684"
         d="m 724.285,411.986 c 0,0 -13.149,9.392 -29.031,11.783 32.276,-19.81 38.424,-71.383 38.424,-71.383 0,0 -13.491,10.075 -22.542,11.1 25.616,-17.419 26.641,-30.056 26.641,-43.377 0,13.491 1.195,25.958 26.811,43.377 -9.222,-0.854 -22.542,-11.1 -22.542,-11.1 0,0 6.148,51.402 38.424,71.383 -15.711,-2.391 -29.032,-11.783 -29.032,-11.783 0,0 13.492,52.427 53.965,77.702 -16.224,0 -43.889,0 -67.626,-10.417 -23.909,10.417 -51.403,10.417 -67.627,10.417 40.644,-25.104 54.135,-77.702 54.135,-77.702 z" />
    </g>
    <g
       id="g4766">
      <path
         style="fill:#24581d;fill-opacity:1"
         inkscape:connector-curvature="0"
         id="path4678"
         d="m -916.16,414.147 c 0,0 17.16,12.257 37.885,15.377 -42.119,-25.851 -50.142,-93.154 -50.142,-93.154 0,0 17.606,13.149 29.417,14.486 -33.428,-22.731 -34.766,-39.223 -34.766,-56.605 0,17.605 -1.56,33.874 -34.988,56.605 12.034,-1.114 29.417,-14.486 29.417,-14.486 0,0 -8.023,67.08 -50.142,93.154 20.502,-3.12 37.885,-15.377 37.885,-15.377 0,0 -17.606,68.417 -70.426,101.399 21.17,0 57.278,0 88.254,-13.594 31.2,13.594 67.08,13.594 88.251,13.594 -53.039,-32.759 -70.645,-101.399 -70.645,-101.399 z" />
      <path
         style="fill:#24581d;fill-opacity:1"
         inkscape:connector-curvature="0"
         id="path4686"
         d="m 606.723,414.147 c 0,0 -17.16,12.257 -37.885,15.377 42.119,-25.851 50.142,-93.154 50.142,-93.154 0,0 -17.605,13.149 -29.417,14.486 33.429,-22.731 34.766,-39.223 34.766,-56.605 0,17.605 1.56,33.874 34.988,56.605 C 647.283,349.742 629.9,336.37 629.9,336.37 c 0,0 8.023,67.08 50.143,93.154 -20.503,-3.12 -37.886,-15.377 -37.886,-15.377 0,0 17.606,68.417 70.423,101.399 -21.172,0 -57.274,0 -88.251,-13.594 -31.2,13.594 -67.08,13.594 -88.251,13.594 53.04,-32.759 70.645,-101.399 70.645,-101.399 z" />
      <path
         style="fill:#24581d;fill-opacity:1"
         inkscape:connector-curvature="0"
         id="path4688"
         d="m 806.356,414.147 c 0,0 -17.16,12.257 -37.886,15.377 42.12,-25.851 50.143,-93.154 50.143,-93.154 0,0 -17.606,13.149 -29.417,14.486 33.428,-22.731 34.765,-39.223 34.765,-56.605 0,17.605 1.56,33.874 34.989,56.605 -12.035,-1.114 -29.417,-14.486 -29.417,-14.486 0,0 8.022,67.08 50.142,93.154 -20.503,-3.12 -37.885,-15.377 -37.885,-15.377 0,0 17.605,68.417 70.422,101.399 -21.171,0 -57.274,0 -88.251,-13.594 -31.2,13.594 -67.079,13.594 -88.251,13.594 53.04,-32.759 70.646,-101.399 70.646,-101.399 z" />
      <path
         style="fill:#24581d;fill-opacity:1"
         inkscape:connector-curvature="0"
         id="path4690"
         d="m 959.726,414.147 c 0,0 -17.16,12.257 -37.885,15.377 42.12,-25.851 50.142,-93.154 50.142,-93.154 0,0 -17.605,13.149 -29.417,14.486 33.429,-22.731 34.766,-39.223 34.766,-56.605 0,17.605 1.56,33.874 34.988,56.605 -12.03,-1.114 -29.417,-14.486 -29.417,-14.486 0,0 8.023,67.08 50.147,93.154 -20.51,-3.12 -37.89,-15.377 -37.89,-15.377 0,0 17.61,68.417 70.42,101.399 -21.17,0 -57.27,0 -88.248,-13.594 -31.2,13.594 -67.08,13.594 -88.251,13.594 53.04,-32.759 70.645,-101.399 70.645,-101.399 z" />
      <path
         style="fill:#24581d;fill-opacity:1"
         inkscape:connector-curvature="0"
         id="path4692"
         d="m -657.263,414.147 c 0,0 17.16,12.257 37.886,15.377 -42.12,-25.851 -50.143,-93.154 -50.143,-93.154 0,0 17.606,13.149 29.417,14.486 -33.428,-22.731 -34.765,-39.223 -34.765,-56.605 0,17.605 -1.56,33.874 -34.989,56.605 12.034,-1.114 29.417,-14.486 29.417,-14.486 0,0 -8.023,67.08 -50.142,93.154 20.502,-3.12 37.885,-15.377 37.885,-15.377 0,0 -17.606,68.417 -70.422,101.399 21.171,0 57.274,0 88.251,-13.594 31.199,13.594 67.079,13.594 88.25,13.594 -53.039,-32.759 -70.645,-101.399 -70.645,-101.399 z" />
      <path
         style="fill:#24581d;fill-opacity:1"
         inkscape:connector-curvature="0"
         id="path4694"
         d="m -480.761,414.147 c 0,0 17.16,12.257 37.885,15.377 -42.12,-25.851 -50.142,-93.154 -50.142,-93.154 0,0 17.605,13.149 29.417,14.486 -33.429,-22.731 -34.766,-39.223 -34.766,-56.605 0,17.605 -1.56,33.874 -34.988,56.605 12.034,-1.114 29.417,-14.486 29.417,-14.486 0,0 -8.023,67.08 -50.143,93.154 20.503,-3.12 37.886,-15.377 37.886,-15.377 0,0 -17.606,68.417 -70.423,101.399 21.172,0 57.274,0 88.251,-13.594 31.2,13.594 67.08,13.594 88.251,13.594 -53.04,-32.759 -70.645,-101.399 -70.645,-101.399 z" />
    </g>
    <g
       id="g4758">
      <path
         style="fill:#407c37;fill-opacity:1"
         inkscape:connector-curvature="0"
         id="path4696"
         d="m -999.875,416.53 c 0,0 21.58,15.414 47.645,19.338 -52.97,-32.511 -63.06,-117.151 -63.06,-117.151 0,0 22.141,16.536 36.995,18.217 -42.035,-28.587 -43.725,-49.327 -43.725,-71.187 0,22.141 -1.96,42.6 -44,71.187 15.14,-1.401 37,-18.217 37,-18.217 0,0 -10.09,84.36 -63.06,117.151 25.78,-3.924 47.64,-19.338 47.64,-19.338 0,0 -22.14,86.041 -88.56,127.52 26.62,0 72.03,0 110.98,-17.096 39.241,17.096 84.364,17.096 110.989,17.096 -66.703,-41.199 -88.844,-127.52 -88.844,-127.52 z" />
      <path
         style="fill:#407c37;fill-opacity:1"
         inkscape:connector-curvature="0"
         id="path4698"
         d="m -609.992,416.53 c 0,0 21.58,15.414 47.645,19.338 -52.97,-32.511 -63.06,-117.151 -63.06,-117.151 0,0 22.141,16.536 36.995,18.217 -42.04,-28.587 -43.721,-49.327 -43.721,-71.187 0,22.141 -1.962,42.6 -44.002,71.187 15.135,-1.401 36.995,-18.217 36.995,-18.217 0,0 -10.089,84.36 -63.059,117.151 25.784,-3.924 47.645,-19.338 47.645,-19.338 0,0 -22.141,86.041 -88.564,127.52 26.625,0 72.028,0 110.985,-17.096 39.237,17.096 84.36,17.096 110.985,17.096 -66.703,-41.199 -88.844,-127.52 -88.844,-127.52 z" />
      <path
         style="fill:#407c37;fill-opacity:1"
         inkscape:connector-curvature="0"
         id="path4700"
         d="m -351.095,416.53 c 0,0 21.58,15.414 47.645,19.338 -52.97,-32.511 -63.06,-117.151 -63.06,-117.151 0,0 22.141,16.536 36.995,18.217 -42.039,-28.587 -43.721,-49.327 -43.721,-71.187 0,22.141 -1.962,42.6 -44.002,71.187 15.135,-1.401 36.995,-18.217 36.995,-18.217 0,0 -10.089,84.36 -63.059,117.151 25.784,-3.924 47.645,-19.338 47.645,-19.338 0,0 -22.141,86.041 -88.564,127.52 26.625,0 72.028,0 110.985,-17.096 39.237,17.096 84.36,17.096 110.985,17.096 -66.703,-41.199 -88.844,-127.52 -88.844,-127.52 z" />
      <path
         style="fill:#407c37;fill-opacity:1"
         inkscape:connector-curvature="0"
         id="path4702"
         d="m 611.422,416.53 c 0,0 21.581,15.414 47.646,19.338 -52.971,-32.511 -63.06,-117.151 -63.06,-117.151 0,0 22.141,16.536 36.995,18.217 -42.04,-28.587 -43.721,-49.327 -43.721,-71.187 0,22.141 -1.962,42.6 -44.002,71.187 15.134,-1.401 36.995,-18.217 36.995,-18.217 0,0 -10.09,84.36 -63.06,117.151 25.785,-3.924 47.645,-19.338 47.645,-19.338 0,0 -22.141,86.041 -88.564,127.52 26.626,0 72.029,0 110.986,-17.096 39.237,17.096 84.359,17.096 110.985,17.096 -66.704,-41.199 -88.845,-127.52 -88.845,-127.52 z" />
      <path
         style="fill:#407c37;fill-opacity:1"
         inkscape:connector-curvature="0"
         id="path4704"
         d="m 1045.34,416.53 c 0,0 21.58,15.414 47.64,19.338 -52.97,-32.511 -63.06,-117.151 -63.06,-117.151 0,0 22.14,16.536 37,18.217 -42.04,-28.587 -43.72,-49.327 -43.72,-71.187 0,22.141 -1.96,42.6 -44.005,71.187 15.135,-1.401 36.995,-18.217 36.995,-18.217 0,0 -10.09,84.36 -63.059,117.151 25.784,-3.924 47.649,-19.338 47.649,-19.338 0,0 -22.145,86.041 -88.568,127.52 26.625,0 72.028,0 110.988,-17.096 39.23,17.096 84.36,17.096 110.98,17.096 -66.7,-41.199 -88.84,-127.52 -88.84,-127.52 z" />
    </g>
    <path
       style="fill:#ffffff;fill-opacity:0.30555558;stroke:#841f7e;stroke-width:0;stroke-linecap:butt;stroke-linejoin:round;stroke-miterlimit:4;stroke-dasharray:none;stroke-opacity:1;paint-order:normal"
       d="m 1230.1761,450.41496 c -31.8903,-6.68365 -59.74,-12.1654 -59.8773,-12.30363 16.3511,-6.9457 28.0151,-11.32596 46.7774,-18.91016 32.6583,-34.90653 65.7257,-71.21508 98.5332,-106.49414 19.1703,11.54546 33.5504,21.74585 53.7441,34.83399 3.3996,9.09184 7.261,17.89627 10.9492,26.87304 30.869,14.9987 68.4556,24.88106 98.5332,40.80664 -49.413,15.36289 -96.295,32.5092 -152.0244,41.55458 -20.1357,3.26821 -37.0699,5.90836 -37.6317,5.86699 -0.5618,-0.0414 -27.1134,-5.54365 -59.0037,-12.22731 z"
       id="path837"
       inkscape:connector-curvature="0"
       transform="translate(-1024,-224)"
       sodipodi:nodetypes="sccccccccs" />
  </g>
</svg>
