<?xml version="1.0" encoding="utf-8" ?>	<!-- Generator: Assembly 2.2 - http://assemblyapp.co -->	<svg version="1.1" xmlns="http://www.w3.org/2000/svg" xmlns:xlink="http://www.w3.org/1999/xlink" width="1536.00" height="2048.00" viewBox="0 0 1536.0 2048.0">		<g id="document" transform="matrix(1,0,0,1,768.0,1024.0)">			<path d="M-0.45731,-49.7912 L-107.451,-49.7912 C-212.266,-49.7912 -376.339,-44.5441 -376.339,92.1236 C-376.339,151.647 -376.339,150.87 -376.339,190.344 C-376.339,250.844 -298.7,278.92 -300.38,414.68 C-301.802,529.56 -243.088,572.78 -138.274,572.78 L-0.45731,572.78 L137.359,572.78 C242.173,572.78 300.888,529.56 299.466,414.68 C297.785,278.92 375.424,250.844 375.424,190.344 C375.424,150.87 375.424,151.647 375.424,92.1236 C375.424,-44.5441 211.351,-49.7912 106.537,-49.7912 L-0.45731,-49.7912 L-0.45731,-49.7912 Z " fill="#4d1940" fill-opacity="1.00" />			<path d="M-338.529,272.237 C-318.911,304.066 -299.064,345.319 -299.923,414.68 C-301.345,529.56 -242.631,572.78 -137.816,572.78 L3.76351e-06,572.78 L137.817,572.78 C242.631,572.78 301.345,529.56 299.923,414.68 C299.064,345.319 318.911,304.066 338.529,272.237 L-338.529,272.237 L-338.529,272.237 Z " fill="#3f0d32" fill-opacity="1.00" />			<path d="M-411.153,-420.664 L-160.925,77.8548 L-165.917,40.581 L198.985,-445.404 L-198.985,-445.404 L-411.153,-420.664 Z M411.153,-420.664 L198.985,-445.404 L109.671,-167.906 L165.775,40.581 L160.925,77.8548 L411.153,-420.664 Z " fill="#000000" fill-opacity="1.00" />			<path d="M-165.479,41.0396 C-97.9205,115.197 104.47,108.007 165.479,41.0396 C157.017,-42.3442 132.307,-285.831 132.307,-285.831 L-132.307,-285.831 L-165.479,41.0396 Z " fill="#8b7a5b" fill-opacity="1.00" />			<path d="M324.399,256.461 C324.399,177.281 255.212,113.093 169.867,113.093 C84.5213,113.093 15.3352,177.281 15.3352,256.461 C15.3352,335.641 84.5213,399.829 169.867,399.829 C255.212,399.829 324.399,335.641 324.399,256.461 Z " fill="#4d1940" fill-opacity="1.00" />			<path d="M1.04167e-05,261.495 C1.04167e-05,182.315 -69.1862,118.126 -154.532,118.126 C-239.877,118.126 -309.063,182.315 -309.063,261.495 C-309.063,340.675 -239.877,404.863 -154.532,404.863 C-69.1862,404.863 1.04167e-05,340.675 1.04167e-05,261.495 Z " fill="#4d1940" fill-opacity="1.00" />			<g>				<path d="M188.14,456.937 C188.14,353.03 103.907,268.797 6.9519e-08,268.797 C-103.907,268.797 -188.14,353.03 -188.14,456.937 C-188.14,560.844 -103.907,645.077 -6.9519e-08,645.077 C103.907,645.077 188.14,560.844 188.14,456.937 Z " fill="#852359" fill-opacity="1.00" />				<path d="M114.62,456.937 C114.62,393.382 63.098,341.86 -0.457314,341.86 C-64.0127,341.86 -115.534,393.382 -115.534,456.937 C-115.534,520.492 -64.0127,572.014 -0.457314,572.014 C63.098,572.014 114.62,520.492 114.62,456.937 Z " fill="#a53071" fill-opacity="0.40" />				<path d="M132.307,590.944 C132.307,590.944 67.6105,631.565 1.457,631.565 C-64.6965,631.565 -132.307,590.944 -132.307,590.944 L-152.547,650.947 C-152.547,650.947 -81.2825,695.454 1.457,695.454 C84.1965,695.454 153.582,650.947 153.582,650.947 L132.307,590.944 Z " fill="#9a978f" fill-opacity="1.00" />			</g>			<path d="M249.595,-379.182 C249.595,-561.578 137.848,-622.572 -1.45519e-13,-622.572 C-137.848,-622.572 -249.595,-561.578 -249.595,-379.182 C-249.595,-196.786 -137.848,2.27374e-13 -1.45519e-13,2.27374e-13 C137.848,2.27374e-13 249.595,-196.786 249.595,-379.182 Z " fill="#a7926f" fill-opacity="1.00" />			<path d="M-322.909,-300.68 L-262.978,-471.65 L234.952,-471.65 L322.909,-300.68 C322.909,-300.68 162.198,-257.427 0.74403,-257.427 C-160.71,-257.427 -322.909,-300.68 -322.909,-300.68 Z " fill="#000000" fill-opacity="0.18" />			<path d="M-411.153,-420.664 L0.947358,-721.923 L411.153,-420.664 C411.153,-420.664 206.524,-365.59 0.947358,-365.59 C-204.629,-365.59 -411.153,-420.664 -411.153,-420.664 Z " fill="#4c183f" fill-opacity="1.00" />			<path d="M355.807,-420.651 L411.15,-420.651 L162.157,74.5853 L355.807,-420.651 Z " fill="#4c183f" fill-opacity="1.00" />			<path d="M-355.81,-420.651 L-411.153,-420.651 L-162.161,74.5853 L-355.81,-420.651 Z " fill="#4c183f" fill-opacity="1.00" />			<path d="M1.04167e-05,695.452 L1.04167e-05,-721.565 L-411.611,-420.664 L-411.604,-420.651 L-411.611,-420.651 L-407.738,-412.949 L-222.364,-43.6351 C-302.748,-32.1909 -376.796,0.31051 -376.796,92.1236 C-376.796,151.647 -376.796,150.87 -376.796,190.344 C-376.796,250.844 -299.157,278.92 -300.838,414.68 C-302.213,525.82 -247.305,569.89 -148.822,572.642 C-143.676,579.232 -138.1,585.47 -132.136,591.315 C-132.551,591.072 -132.764,590.944 -132.764,590.944 L-153.005,650.947 C-153.005,650.947 -82.313,695.096 1.03182e-05,695.452 L1.04167e-05,695.452 Z " fill="#000000" fill-opacity="0.25" />		</g>	</svg>