<?xml version="1.0" encoding="utf-8" ?>	<!-- Generator: Assembly 2.2 - http://assemblyapp.co -->	<svg version="1.1" xmlns="http://www.w3.org/2000/svg" xmlns:xlink="http://www.w3.org/1999/xlink" width="1536.00" height="2048.00" viewBox="0 0 1536.0 2048.0">		<g id="document" transform="matrix(1,0,0,1,768.0,1024.0)">			<path d="M137.359,570.503 C242.173,570.503 338.735,526.035 375.424,380.448 L436.526,137.986 C472.135,-3.31583 211.351,-52.0689 106.537,-52.0689 L-135.925,-52.0689 C-240.74,-52.0689 -468.774,9.69297 -436.794,137.986 L-376.356,380.448 C-339.494,528.329 -240.74,570.503 -135.925,570.503 L137.359,570.503 Z " fill="#5a4d15" fill-opacity="1.00" />			<g>				<path d="M-0.574866,-514.336 C-105.389,-514.336 -329.9,-553.022 -391.633,-312.029 L-346.945,-344.898 C-346.945,-344.898 -378.578,-232.696 -376.922,-139.872 C-352.309,-164.575 -327.864,-189.108 -327.864,-189.108 C-327.864,-189.108 -350.684,-71.1719 -346.945,42.7439 C-257.874,-46.4503 -285.105,-19.181 -285.105,-19.181 C-285.105,-19.181 -279.711,90.8049 -237.259,179.119 C-199.838,112.596 -189.86,94.8585 -189.86,94.8585 C-189.86,94.8585 -104.653,230.033 -0.574867,272.978 L-0.574866,-514.336 Z M-0.574866,-514.336 L-0.574866,272.978 C103.504,230.033 188.711,94.8585 188.711,94.8585 C188.711,94.8585 198.688,112.596 236.109,179.119 C278.561,90.8049 283.956,-19.181 283.956,-19.181 C283.956,-19.181 256.724,-46.4503 345.795,42.7439 C349.534,-71.1719 326.714,-189.108 326.714,-189.108 C326.714,-189.108 351.159,-164.575 375.772,-139.872 C377.428,-232.696 345.795,-344.898 345.795,-344.898 L390.483,-312.029 C328.75,-553.022 104.239,-514.336 -0.574866,-514.336 Z " fill="#6b5c1a" fill-opacity="1.00" />				<path d="M186.287,-148.256 C243.175,-218.762 238.955,-162.369 300.607,-270.737 C324.666,-313.027 306.423,-413.777 289.643,-472.502 C303.753,-536.124 300.607,-521.938 300.607,-521.938 C300.607,-521.938 344.675,-639.059 319.631,-796.179 C251.77,-806.119 109.403,-629.893 109.403,-629.893 C109.403,-629.893 77.2141,-635.212 -7.01338e-06,-635.212 C-7.01338e-06,-449.319 -7.01338e-06,-552.872 -7.01338e-06,-340.231 C-7.01338e-06,-127.59 -7.01338e-06,-101.27 -7.01338e-06,93.8854 C160.706,93.8854 132.996,5.32921 186.287,-148.256 Z " fill="#6d5d19" fill-opacity="1.00" />				<path d="M-186.287,-148.256 C-243.175,-218.762 -238.955,-162.368 -300.607,-270.737 C-324.666,-313.027 -306.423,-413.777 -289.643,-472.502 C-303.753,-536.124 -300.607,-521.938 -300.607,-521.938 C-300.607,-521.938 -344.675,-639.059 -319.631,-796.179 C-251.77,-806.119 -109.403,-629.893 -109.403,-629.893 C-109.403,-629.893 -77.2141,-635.212 8.52651e-14,-635.212 C8.23103e-14,-449.319 8.52651e-14,-552.872 8.52651e-14,-340.231 C8.52651e-14,-127.59 7.88631e-14,-101.27 8.47727e-14,93.8854 C-160.706,93.8854 -132.996,5.32922 -186.287,-148.256 Z " fill="#6d5d19" fill-opacity="1.00" />			</g>			<path d="M-104.327,69.0122 C-104.327,118.362 -57.6543,129.155 -7.62211e-07,129.155 C57.6543,129.155 103.689,122.349 104.327,69.0122 L-104.327,69.0122 Z " fill="#5a4e15" fill-opacity="1.00" />			<path d="M9.94361e-07,-635.212 C9.94361e-07,-635.212 9.94361e-07,-635.212 9.94361e-07,-635.212 C-13.422,-635.212 -24.1186,-635.91 -109.264,-630.653 C-109.264,-630.653 -94.4448,-537.629 -109.264,-444.816 C-133.205,-294.87 -218.718,-255.636 -186.287,-148.256 C-132.996,5.32922 -160.706,93.8854 -2.57344e-06,93.8854 C-9.9436e-07,93.8854 -9.9436e-07,93.8854 -9.9436e-07,93.8854 C160.706,93.8854 132.996,5.32922 186.287,-148.256 C218.718,-255.636 133.205,-294.87 109.264,-444.816 C94.4448,-537.629 109.264,-630.653 109.264,-630.653 C24.1186,-635.91 13.422,-635.212 4.78805e-07,-635.212 L9.94361e-07,-635.212 Z " fill="#625417" fill-opacity="1.00" />			<path d="M91.3058,-48.0915 C117.153,-15.3531 55.4361,69.0122 -1.14969,69.0122 C-57.7355,69.0122 -116.004,-19.7216 -93.6052,-48.0914 C-71.2067,-76.4612 65.4583,-80.8298 91.3058,-48.0915 Z " fill="#2a2d03" fill-opacity="1.00" />			<g>				<path d="M-258.917,-508.239 C-303.906,-566.381 -313.539,-758.539 -292.509,-763.305 C-271.478,-768.071 -198.338,-574.504 -198.338,-574.504 C-198.338,-574.504 -184.604,-531.942 -258.917,-508.239 Z " fill="#625417" fill-opacity="1.00" />				<path d="M257.767,-508.239 C302.756,-566.381 312.389,-758.539 291.359,-763.305 C270.329,-768.071 197.188,-574.504 197.188,-574.504 C197.188,-574.504 183.454,-531.942 257.767,-508.239 Z " fill="#625417" fill-opacity="1.00" />			</g>			<path d="M-154.478,-270.679 C-191.76,-270.679 -221.888,-300.807 -221.888,-338.089 L-221.888,-406.6 L-153.377,-406.6 C-116.095,-406.6 -85.9671,-376.472 -85.9671,-339.19 L-85.9671,-270.679 L-154.478,-270.679 Z " fill="#625417" fill-opacity="1.00" />			<path d="M-1.01199,-635.212 C-77.4955,-635.166 -109.403,-629.893 -109.403,-629.893 C-109.403,-629.893 -251.77,-806.119 -319.631,-796.179 C-344.675,-639.059 -300.607,-521.938 -300.607,-521.938 C-300.607,-521.938 -303.753,-536.124 -289.643,-472.502 C-290.021,-471.181 -290.399,-469.839 -290.777,-468.477 C-334.988,-438.245 -371.752,-389.641 -391.633,-312.029 L-346.945,-344.898 C-346.945,-344.898 -378.578,-232.696 -376.922,-139.872 C-352.309,-164.575 -327.864,-189.108 -327.864,-189.108 C-327.864,-189.108 -345.275,-99.1258 -347.189,-0.438785 C-408.39,30.9926 -452.005,76.9631 -436.794,137.986 L-376.356,380.448 C-339.494,528.329 -240.74,570.503 -135.925,570.503 L-1.01199,570.503 L-1.01199,-635.212 L-1.01199,-635.212 Z " fill="#0a0a0a" fill-opacity="0.25" />			<path d="M154.478,-274.015 C191.76,-274.015 221.888,-304.144 221.888,-341.426 L221.888,-409.937 L153.377,-409.937 C116.095,-409.937 85.9671,-379.808 85.9671,-342.526 L85.9671,-274.015 L154.478,-274.015 Z " fill="#625417" fill-opacity="1.00" />			<g>				<path d="M164.581,-392.516 C139.26,-381.319 117.571,-363.101 102.165,-340.148 C102.264,-337.818 102.521,-335.466 102.947,-333.106 C107.993,-305.125 134.729,-286.558 162.71,-291.604 C190.692,-296.65 209.259,-323.387 204.213,-351.368 C200.409,-372.461 184.279,-388.205 164.581,-392.516 L164.581,-392.516 Z " fill="#942727" fill-opacity="1.00" />				<path d="M159.293,-310.556 C176.801,-313.713 188.418,-330.442 185.261,-347.95 C182.104,-365.459 165.375,-377.076 147.866,-373.919 C130.358,-370.761 118.741,-354.032 121.898,-336.524 C125.056,-319.016 141.785,-307.399 159.293,-310.556 Z " fill="#000000" fill-opacity="1.00" />			</g>			<g>				<path d="M-173.673,-388.116 C-146.773,-381.592 -122.201,-367.516 -102.971,-347.666 C-102.654,-345.356 -102.491,-342.997 -102.491,-340.6 C-102.491,-312.174 -125.502,-289.163 -153.928,-289.163 C-182.353,-289.163 -205.365,-312.174 -205.365,-340.6 C-205.365,-362.028 -192.288,-380.38 -173.673,-388.116 L-173.673,-388.116 Z " fill="#942727" fill-opacity="1.00" />				<path d="M-153.928,-308.415 C-171.714,-308.415 -186.112,-322.813 -186.112,-340.6 C-186.112,-358.386 -171.714,-372.784 -153.928,-372.784 C-136.141,-372.784 -121.743,-358.386 -121.743,-340.6 C-121.743,-322.813 -136.141,-308.415 -153.928,-308.415 Z " fill="#000000" fill-opacity="1.00" />			</g>		</g>	</svg>