<?xml version="1.0" encoding="utf-8" ?>	<!-- Generator: Assembly 2.2 - http://assemblyapp.co -->	<svg version="1.1" xmlns="http://www.w3.org/2000/svg" xmlns:xlink="http://www.w3.org/1999/xlink" width="1536.00" height="2048.00" viewBox="0 0 1536.0 2048.0">		<g id="document" transform="matrix(1,0,0,1,768.0,1024.0)">			<path d="M137.359,570.503 C242.173,570.503 338.735,526.035 375.424,380.448 L436.526,137.986 C472.135,-3.31583 211.351,-52.0689 106.537,-52.0689 L-135.925,-52.0689 C-240.74,-52.0689 -468.774,9.69297 -436.794,137.986 L-376.356,380.448 C-339.494,528.329 -240.74,570.503 -135.925,570.503 L137.359,570.503 Z " fill="#f1cf40" fill-opacity="1.00" />			<path d="M-196.997,42.7356 C-116.571,116.893 124.368,109.703 196.997,42.7356 C186.923,-40.6482 157.506,-284.135 157.506,-284.135 L-157.506,-284.135 L-196.997,42.7356 Z " fill="#8b7a5b" fill-opacity="1.00" />			<path d="M249.595,-379.182 C249.595,-561.578 137.848,-622.572 -1.45519e-13,-622.572 C-137.848,-622.572 -249.595,-561.578 -249.595,-379.182 C-249.595,-196.786 -137.848,2.27374e-13 -1.45519e-13,2.27374e-13 C137.848,2.27374e-13 249.595,-196.786 249.595,-379.182 Z " fill="#a7926f" fill-opacity="1.00" />			<path d="M493.695,-529.316 C493.695,-578.995 272.66,-619.267 0,-619.267 C-272.66,-619.267 -493.695,-578.995 -493.695,-529.316 C-493.695,-479.637 -272.66,-439.365 0,-439.365 C272.66,-439.365 493.695,-479.637 493.695,-529.316 Z " fill="#bebc7a" fill-opacity="1.00" />			<path d="M251.547,-566.518 L251.547,-713.135 C251.547,-794.16 139.013,-859.752 2.83046e-06,-859.752 C-139.013,-859.752 -251.547,-794.16 -251.547,-713.135 C-251.547,-713.135 -251.547,-611.742 -251.547,-566.518 C-132.231,-517.564 126.319,-516.27 251.547,-566.518 C251.547,-654.49 251.547,-566.518 251.547,-566.518 Z " fill="#a8a663" fill-opacity="1.00" />			<path d="M-1.13687e-13,570.5 L-1.13687e-13,-859.752 C-138.238,-859.225 -249.866,-793.836 -249.866,-713.138 C-249.866,-713.138 -249.866,-654.675 -249.866,-606.735 C-394.837,-591.064 -492.015,-562.259 -492.015,-529.319 C-492.015,-495.722 -390.925,-466.428 -241.142,-450.982 C-245.57,-429.474 -247.915,-405.603 -247.915,-379.185 C-247.915,-288.384 -220.22,-194.016 -175.398,-122.136 L-184.3,-48.4483 C-297.657,-33.5322 -462.629,27.599 -435.114,137.983 L-374.676,380.445 C-337.813,528.327 -239.059,570.5 -134.245,570.5 L-1.13687e-13,570.5 Z " fill="#000000" fill-opacity="0.25" />			<g>				<path d="M475.274,-62.3436 L475.274,832.464 " fill="none" stroke-width="103.60" stroke="#7f6027" stroke-linecap="square" stroke-linejoin="miter" />				<path d="M601.213,-71.5148 L354.922,-71.5148 " fill="none" stroke-width="126.95" stroke="#ababab" stroke-linecap="square" stroke-linejoin="miter" />				<path d="M527.541,-431.103 L527.541,-2.55795e-13 " fill="none" stroke-width="66.47" stroke="#cecece" stroke-linecap="round" stroke-linejoin="round" />				<path d="M633.31,-431.103 L633.31,-1.13687e-13 " fill="none" stroke-width="66.47" stroke="#cecece" stroke-linecap="round" stroke-linejoin="round" />				<path d="M423.318,-431.103 L423.318,-4.26326e-13 " fill="none" stroke-width="66.47" stroke="#cecece" stroke-linecap="round" stroke-linejoin="round" />				<path d="M324.302,-430.681 L324.302,0.421321 " fill="none" stroke-width="66.47" stroke="#cecece" stroke-linecap="round" stroke-linejoin="round" />				<path d="M617.89,-14.9986 L339.722,-14.9986 " fill="none" stroke-width="97.31" stroke="#cecece" stroke-linecap="square" stroke-linejoin="miter" />			</g>			<path d="M475.447,884.317 L475.447,-135.02 L456.555,-135.02 L456.555,-431.157 C456.555,-449.512 441.675,-464.392 423.32,-464.392 C404.964,-464.392 390.085,-449.512 390.085,-431.157 L390.085,-135.02 L357.539,-135.02 L357.539,-430.736 C357.539,-449.091 342.659,-463.971 324.304,-463.971 C305.949,-463.971 291.069,-449.091 291.069,-430.736 L291.069,-135.02 L291.069,-135.02 L291.069,-50.9118 L291.069,33.1963 L319.095,33.1963 L319.095,33.1963 C320.792,33.4634 322.532,33.6021 324.304,33.6021 C326.076,33.6021 327.816,33.4634 329.513,33.1963 L423.712,33.1963 L423.712,884.317 L475.447,884.317 L475.447,884.317 Z " fill="#000000" fill-opacity="0.25" />		</g>	</svg>